<svg width="120" height="42" viewBox="0 0 120 42" fill="none" xmlns="http://www.w3.org/2000/svg">
<path d="M52.9726 18.3337C51.5141 18.3337 50.275 18.0646 49.2555 17.5265C48.2501 16.9743 47.4854 16.1955 46.9615 15.1901C46.4375 14.1847 46.1756 12.9952 46.1756 11.6216V2.42442H49.659V11.7491C49.659 12.4288 49.7865 13.0235 50.0414 13.5333C50.3104 14.0289 50.6857 14.4112 51.1671 14.6803C51.6627 14.9493 52.2646 15.0839 52.9726 15.0839C53.6948 15.0839 54.2966 14.9493 54.778 14.6803C55.2737 14.4112 55.6489 14.0289 55.9038 13.5333C56.1587 13.0377 56.2861 12.4429 56.2861 11.7491V2.42442H59.7696V11.6216C59.7696 12.9952 59.5076 14.1847 58.9837 15.1901C58.4598 16.1955 57.6951 16.9743 56.6897 17.5265C55.6843 18.0646 54.4453 18.3337 52.9726 18.3337ZM61.7103 17.9301V6.29022H64.4079V11.2818H64.2167C64.2167 10.0923 64.3654 9.10107 64.6628 8.30809C64.9743 7.5151 65.4416 6.92036 66.0646 6.52387C66.6877 6.12738 67.4453 5.92913 68.3374 5.92913H68.4861C69.8455 5.92913 70.8792 6.37518 71.5872 7.26729C72.3094 8.14524 72.6705 9.4834 72.6705 11.2818V17.9301H69.272V11.0906C69.272 10.4676 69.0879 9.95778 68.7197 9.56129C68.3516 9.16479 67.8559 8.96655 67.2329 8.96655C66.5957 8.96655 66.0788 9.17187 65.6823 9.58253C65.3 9.97902 65.1088 10.503 65.1088 11.1543V17.9301H61.7103ZM75.0568 17.9301V6.29022H78.4553V17.9301H75.0568ZM73.5062 8.79662V6.29022H78.4553V8.79662H73.5062ZM76.3737 5.14322C75.7365 5.14322 75.2621 4.98038 74.9506 4.65469C74.6532 4.31484 74.5045 3.89002 74.5045 3.38025C74.5045 2.85631 74.6532 2.4315 74.9506 2.10581C75.2621 1.76596 75.7365 1.59603 76.3737 1.59603C77.0109 1.59603 77.4782 1.76596 77.7756 2.10581C78.0871 2.4315 78.2429 2.85631 78.2429 3.38025C78.2429 3.89002 78.0871 4.31484 77.7756 4.65469C77.4782 4.98038 77.0109 5.14322 76.3737 5.14322ZM85.3369 18.3124C84.5156 18.3124 83.7651 18.1638 83.0854 17.8664C82.4199 17.569 81.8393 17.1584 81.3437 16.6344C80.848 16.0963 80.4657 15.4662 80.1967 14.744C79.9418 14.0218 79.8143 13.243 79.8143 12.4075V11.919C79.8143 11.0835 79.9347 10.3047 80.1754 9.58253C80.4303 8.86034 80.7914 8.2302 81.2587 7.69211C81.7402 7.13985 82.3137 6.71503 82.9792 6.41766C83.6447 6.10614 84.3882 5.95037 85.2095 5.95037C86.1441 5.95037 86.9512 6.1557 87.6309 6.56635C88.3106 6.96284 88.8416 7.55758 89.224 8.35057C89.6063 9.12939 89.8187 10.0923 89.8612 11.2393L88.9691 10.4109V2.42442H92.3888V17.9301H89.6912V13.1085H90.1585C90.1161 14.213 89.8824 15.1547 89.4576 15.9335C89.0469 16.7123 88.4876 17.3071 87.7796 17.7177C87.0716 18.1142 86.2573 18.3124 85.3369 18.3124ZM86.1865 15.4662C86.7105 15.4662 87.1848 15.3529 87.6097 15.1263C88.0486 14.8856 88.3956 14.5387 88.6505 14.0856C88.9195 13.6324 89.054 13.0872 89.054 12.45V11.6641C89.054 11.0411 88.9195 10.5171 88.6505 10.0923C88.3814 9.66749 88.0274 9.3418 87.5884 9.11523C87.1494 8.88866 86.6751 8.77538 86.1653 8.77538C85.5989 8.77538 85.0891 8.92407 84.636 9.22144C84.197 9.50464 83.8501 9.90114 83.5952 10.4109C83.3403 10.9065 83.2128 11.4871 83.2128 12.1526C83.2128 12.8324 83.3403 13.42 83.5952 13.9156C83.8501 14.4112 84.2041 14.7936 84.6572 15.0626C85.1103 15.3317 85.6201 15.4662 86.1865 15.4662ZM99.7407 18.3337C98.7495 18.3337 97.8716 18.1638 97.1069 17.8239C96.3564 17.4841 95.7263 17.0309 95.2165 16.4645C94.7209 15.8839 94.3385 15.2396 94.0695 14.5316C93.8146 13.8094 93.6872 13.0731 93.6872 12.3226V11.8978C93.6872 11.1189 93.8146 10.3755 94.0695 9.66749C94.3385 8.94531 94.7209 8.30101 95.2165 7.73459C95.7121 7.16817 96.3281 6.72211 97.0644 6.39642C97.8149 6.05657 98.6646 5.88665 99.6133 5.88665C100.859 5.88665 101.907 6.16986 102.757 6.73628C103.621 7.28853 104.279 8.0178 104.732 8.92407C105.185 9.81617 105.412 10.7932 105.412 11.8553V13.0023H95.1103V11.0694H103.352L102.247 11.9615C102.247 11.2676 102.148 10.6729 101.95 10.1773C101.752 9.68165 101.454 9.3064 101.058 9.05151C100.675 8.78246 100.194 8.64794 99.6133 8.64794C99.0186 8.64794 98.5159 8.78246 98.1052 9.05151C97.6946 9.32056 97.383 9.71705 97.1706 10.241C96.9582 10.7508 96.852 11.3809 96.852 12.1314C96.852 12.8253 96.9511 13.4342 97.1494 13.9581C97.3476 14.4679 97.6592 14.8644 98.084 15.1476C98.5088 15.4308 99.061 15.5724 99.7407 15.5724C100.364 15.5724 100.874 15.452 101.27 15.2113C101.667 14.9706 101.936 14.6732 102.077 14.3192H105.2C105.03 15.098 104.697 15.7919 104.201 16.4008C103.706 17.0097 103.083 17.4841 102.332 17.8239C101.582 18.1638 100.718 18.3337 99.7407 18.3337ZM113.76 18.3124C112.811 18.3124 111.976 18.1142 111.254 17.7177C110.532 17.3071 109.965 16.7194 109.554 15.9547C109.144 15.1901 108.924 14.2555 108.896 13.151H109.3V17.9301H106.602V2.42442H110V10.3047L109.193 11.3243C109.236 10.1489 109.455 9.16479 109.852 8.37181C110.262 7.56466 110.822 6.96284 111.53 6.56635C112.238 6.1557 113.045 5.95037 113.951 5.95037C114.744 5.95037 115.459 6.09906 116.097 6.39642C116.748 6.67963 117.3 7.09029 117.753 7.62838C118.206 8.15232 118.553 8.77538 118.794 9.49756C119.049 10.2197 119.176 11.0057 119.176 11.8553V12.3226C119.176 13.1722 119.049 13.9581 118.794 14.6803C118.553 15.4025 118.192 16.0397 117.711 16.592C117.244 17.13 116.677 17.5549 116.012 17.8664C115.346 18.1638 114.596 18.3124 113.76 18.3124ZM112.868 15.4662C113.449 15.4662 113.951 15.3246 114.376 15.0414C114.815 14.7582 115.155 14.3617 115.396 13.8519C115.636 13.328 115.757 12.7403 115.757 12.0889C115.757 11.4234 115.636 10.8428 115.396 10.3472C115.155 9.85158 114.815 9.46924 114.376 9.20019C113.951 8.91699 113.449 8.77538 112.868 8.77538C112.358 8.77538 111.877 8.89574 111.424 9.13647C110.97 9.3772 110.602 9.72413 110.319 10.1773C110.05 10.6162 109.916 11.1543 109.916 11.7916V12.5775C109.916 13.1864 110.057 13.7103 110.34 14.1493C110.638 14.5741 111.013 14.8998 111.466 15.1263C111.919 15.3529 112.387 15.4662 112.868 15.4662ZM46.4729 37.9301V22.4244H52.1867L58.0279 35.1051H58.7501L58.3252 35.4874V22.4244H61.5963V37.9301H55.8401L49.9989 25.2494H49.2767L49.7015 24.8671V37.9301H46.4729ZM69.4973 38.3337C68.4778 38.3337 67.5715 38.1779 66.7785 37.8664C65.9855 37.5407 65.3129 37.1017 64.7607 36.5495C64.2226 35.9972 63.8119 35.3671 63.5287 34.659C63.2455 33.9369 63.1039 33.1793 63.1039 32.3863V31.8978C63.1039 31.0906 63.2455 30.326 63.5287 29.6038C63.8261 28.8674 64.2509 28.2231 64.8031 27.6709C65.3696 27.1186 66.0493 26.6867 66.8423 26.3752C67.6352 26.0495 68.5203 25.8866 69.4973 25.8866C70.5027 25.8866 71.3948 26.0495 72.1737 26.3752C72.9666 26.6867 73.6393 27.1186 74.1915 27.6709C74.7438 28.2231 75.1686 28.8674 75.466 29.6038C75.7633 30.326 75.912 31.0906 75.912 31.8978V32.3863C75.912 33.1793 75.7704 33.9369 75.4872 34.659C75.204 35.3671 74.7863 35.9972 74.234 36.5495C73.6959 37.1017 73.0304 37.5407 72.2374 37.8664C71.4444 38.1779 70.531 38.3337 69.4973 38.3337ZM69.4973 35.4662C70.1629 35.4662 70.7151 35.3246 71.1541 35.0414C71.5931 34.7582 71.9259 34.3617 72.1524 33.8519C72.3931 33.3421 72.5135 32.7757 72.5135 32.1526C72.5135 31.4871 72.3931 30.9065 72.1524 30.4109C71.9117 29.9011 71.5648 29.4976 71.1116 29.2002C70.6727 28.9028 70.1346 28.7541 69.4973 28.7541C68.8743 28.7541 68.3362 28.9028 67.883 29.2002C67.4299 29.4976 67.083 29.9011 66.8423 30.4109C66.6157 30.9065 66.5024 31.4871 66.5024 32.1526C66.5024 32.7757 66.6157 33.3421 66.8423 33.8519C67.0688 34.3617 67.4087 34.7582 67.8618 35.0414C68.3149 35.3246 68.8601 35.4662 69.4973 35.4662ZM82.5107 38.0788C81.3354 38.0788 80.3867 37.9372 79.6645 37.654C78.9423 37.3566 78.4113 36.8681 78.0714 36.1884C77.7457 35.4945 77.5829 34.5599 77.5829 33.3846V23.1466H80.7478V33.5121C80.7478 34.0643 80.8894 34.4891 81.1726 34.7865C81.4699 35.0697 81.8877 35.2113 82.4258 35.2113H84.1463V38.0788H82.5107ZM75.8199 28.7754V26.2902H84.1463V28.7754H75.8199ZM90.6595 38.3337C89.6683 38.3337 88.7903 38.1638 88.0257 37.8239C87.2752 37.4841 86.645 37.0309 86.1353 36.4645C85.6396 35.8839 85.2573 35.2396 84.9883 34.5316C84.7334 33.8094 84.6059 33.0731 84.6059 32.3226V31.8978C84.6059 31.1189 84.7334 30.3755 84.9883 29.6675C85.2573 28.9453 85.6396 28.301 86.1353 27.7346C86.6309 27.1682 87.2469 26.7221 87.9832 26.3964C88.7337 26.0566 89.5833 25.8866 90.5321 25.8866C91.7782 25.8866 92.8261 26.1699 93.6757 26.7363C94.5395 27.2885 95.198 28.0178 95.6511 28.9241C96.1042 29.8162 96.3308 30.7932 96.3308 31.8553V33.0023H86.0291V31.0694H94.2704L93.1659 31.9615C93.1659 31.2676 93.0668 30.6729 92.8686 30.1773C92.6703 29.6817 92.3729 29.3064 91.9764 29.0515C91.5941 28.7825 91.1127 28.6479 90.5321 28.6479C89.9373 28.6479 89.4346 28.7825 89.024 29.0515C88.6133 29.3206 88.3018 29.7171 88.0894 30.241C87.877 30.7508 87.7708 31.3809 87.7708 32.1314C87.7708 32.8253 87.8699 33.4342 88.0682 33.9581C88.2664 34.4679 88.5779 34.8644 89.0028 35.1476C89.4276 35.4308 89.9798 35.5724 90.6595 35.5724C91.2826 35.5724 91.7924 35.452 92.1889 35.2113C92.5853 34.9706 92.8544 34.6732 92.996 34.3192H96.1184C95.9485 35.098 95.6157 35.7919 95.1201 36.4008C94.6245 37.0097 94.0014 37.4841 93.2509 37.8239C92.5004 38.1638 91.6366 38.3337 90.6595 38.3337ZM101.939 38.2912C100.282 38.2912 98.9864 37.9514 98.0518 37.2717C97.1172 36.592 96.6216 35.6361 96.5649 34.4042H99.5811C99.6378 34.7723 99.8572 35.1051 100.24 35.4025C100.636 35.6857 101.224 35.8273 102.003 35.8273C102.597 35.8273 103.086 35.7282 103.468 35.5299C103.865 35.3175 104.063 35.0201 104.063 34.6378C104.063 34.298 103.914 34.0289 103.617 33.8307C103.319 33.6183 102.788 33.4696 102.024 33.3846L101.11 33.2996C99.7086 33.158 98.6536 32.7686 97.9456 32.1314C97.2517 31.4942 96.9048 30.68 96.9048 29.6887C96.9048 28.8674 97.1101 28.1806 97.5208 27.6284C97.9314 27.0761 98.4978 26.6584 99.22 26.3752C99.9564 26.092 100.792 25.9504 101.726 25.9504C103.227 25.9504 104.438 26.2831 105.359 26.9487C106.279 27.6001 106.76 28.5488 106.803 29.7949H103.787C103.73 29.4126 103.532 29.094 103.192 28.8391C102.852 28.5701 102.349 28.4355 101.684 28.4355C101.16 28.4355 100.742 28.5347 100.431 28.7329C100.119 28.9311 99.9634 29.2002 99.9634 29.54C99.9634 29.8657 100.098 30.1135 100.367 30.2835C100.636 30.4534 101.075 30.5738 101.684 30.6446L102.597 30.7295C104.027 30.8853 105.139 31.2818 105.932 31.919C106.725 32.5562 107.122 33.4129 107.122 34.4891C107.122 35.2679 106.909 35.9477 106.484 36.5282C106.06 37.0946 105.458 37.5336 104.679 37.8452C103.9 38.1425 102.987 38.2912 101.939 38.2912Z" fill="#F5F7F8"/>
<path d="M30.251 39.353H33.6525C35.5746 39.353 37.1327 37.7669 37.1327 35.8104V14.8369L31.4108 37.1524C31.1957 37.991 30.7911 38.7388 30.251 39.353Z" fill="#F5F7F8"/>
<path d="M29.6116 36.5728C29.2055 38.126 27.8 39.2097 26.1918 39.2097H3.53623C1.22174 39.2097 -0.468134 37.0261 0.116392 34.7908L7.17136 7.81181H37.1326L29.6116 36.5728Z" fill="#F5F7F8"/>
<path d="M7.16846 4.04011C7.16846 2.08496 8.75342 0.5 10.7086 0.5H33.5925C35.5477 0.5 37.1326 2.08496 37.1326 4.04011V5.94803H7.16846V4.04011Z" fill="#F5F7F8"/>
</svg>
