<svg width="120" height="43" viewBox="0 0 120 43" fill="none" xmlns="http://www.w3.org/2000/svg">
<path d="M52.9726 18.7602C51.5141 18.7602 50.275 18.4912 49.2555 17.9531C48.2501 17.4008 47.4854 16.622 46.9615 15.6166C46.4375 14.6112 46.1756 13.4217 46.1756 12.0481V2.85093H49.659V12.1756C49.659 12.8553 49.7865 13.45 50.0414 13.9598C50.3104 14.4554 50.6857 14.8378 51.1671 15.1068C51.6627 15.3759 52.2646 15.5104 52.9726 15.5104C53.6948 15.5104 54.2966 15.3759 54.778 15.1068C55.2737 14.8378 55.6489 14.4554 55.9038 13.9598C56.1587 13.4642 56.2861 12.8695 56.2861 12.1756V2.85093H59.7696V12.0481C59.7696 13.4217 59.5076 14.6112 58.9837 15.6166C58.4598 16.622 57.6951 17.4008 56.6897 17.9531C55.6843 18.4912 54.4453 18.7602 52.9726 18.7602ZM61.7103 18.3566V6.71673H64.4079V11.7083H64.2167C64.2167 10.5188 64.3654 9.52759 64.6628 8.7346C64.9743 7.94161 65.4416 7.34688 66.0646 6.95038C66.6877 6.55389 67.4453 6.35564 68.3374 6.35564H68.4861C69.8455 6.35564 70.8792 6.8017 71.5872 7.69381C72.3094 8.57175 72.6705 9.90992 72.6705 11.7083V18.3566H69.272V11.5171C69.272 10.8941 69.0879 10.3843 68.7197 9.9878C68.3516 9.59131 67.8559 9.39306 67.2329 9.39306C66.5957 9.39306 66.0788 9.59839 65.6823 10.009C65.3 10.4055 65.1088 10.9295 65.1088 11.5809V18.3566H61.7103ZM75.0568 18.3566V6.71673H78.4553V18.3566H75.0568ZM73.5062 9.22314V6.71673H78.4553V9.22314H73.5062ZM76.3737 5.56974C75.7365 5.56974 75.2621 5.40689 74.9506 5.0812C74.6532 4.74135 74.5045 4.31654 74.5045 3.80676C74.5045 3.28282 74.6532 2.85801 74.9506 2.53232C75.2621 2.19247 75.7365 2.02254 76.3737 2.02254C77.0109 2.02254 77.4782 2.19247 77.7756 2.53232C78.0871 2.85801 78.2429 3.28282 78.2429 3.80676C78.2429 4.31654 78.0871 4.74135 77.7756 5.0812C77.4782 5.40689 77.0109 5.56974 76.3737 5.56974ZM85.3369 18.739C84.5156 18.739 83.7651 18.5903 83.0854 18.2929C82.4199 17.9955 81.8393 17.5849 81.3437 17.0609C80.848 16.5228 80.4657 15.8927 80.1967 15.1705C79.9418 14.4483 79.8143 13.6695 79.8143 12.8341V12.3455C79.8143 11.51 79.9347 10.7312 80.1754 10.009C80.4303 9.28686 80.7914 8.65672 81.2587 8.11862C81.7402 7.56636 82.3137 7.14155 82.9792 6.84418C83.6447 6.53265 84.3882 6.37688 85.2095 6.37688C86.1441 6.37688 86.9512 6.58221 87.6309 6.99286C88.3106 7.38936 88.8416 7.9841 89.224 8.77708C89.6063 9.55591 89.8187 10.5188 89.8612 11.6658L88.9691 10.8374V2.85093H92.3888V18.3566H89.6912V13.535H90.1585C90.1161 14.6395 89.8824 15.5812 89.4576 16.36C89.0469 17.1388 88.4876 17.7336 87.7796 18.1442C87.0716 18.5407 86.2573 18.739 85.3369 18.739ZM86.1865 15.8927C86.7105 15.8927 87.1848 15.7794 87.6097 15.5529C88.0486 15.3121 88.3956 14.9652 88.6505 14.5121C88.9195 14.0589 89.054 13.5138 89.054 12.8765V12.0906C89.054 11.4676 88.9195 10.9436 88.6505 10.5188C88.3814 10.094 88.0274 9.76831 87.5884 9.54175C87.1494 9.31518 86.6751 9.20189 86.1653 9.20189C85.5989 9.20189 85.0891 9.35058 84.636 9.64795C84.197 9.93116 83.8501 10.3277 83.5952 10.8374C83.3403 11.333 83.2128 11.9136 83.2128 12.5792C83.2128 13.2589 83.3403 13.8465 83.5952 14.3421C83.8501 14.8378 84.2041 15.2201 84.6572 15.4891C85.1103 15.7582 85.6201 15.8927 86.1865 15.8927ZM99.7407 18.7602C98.7495 18.7602 97.8716 18.5903 97.1069 18.2504C96.3564 17.9106 95.7263 17.4574 95.2165 16.891C94.7209 16.3104 94.3385 15.6661 94.0695 14.9581C93.8146 14.2359 93.6872 13.4996 93.6872 12.7491V12.3243C93.6872 11.5454 93.8146 10.802 94.0695 10.094C94.3385 9.37182 94.7209 8.72752 95.2165 8.1611C95.7121 7.59468 96.3281 7.14863 97.0644 6.82294C97.8149 6.48309 98.6646 6.31316 99.6133 6.31316C100.859 6.31316 101.907 6.59637 102.757 7.16279C103.621 7.71505 104.279 8.44431 104.732 9.35058C105.185 10.2427 105.412 11.2198 105.412 12.2818V13.4288H95.1103V11.4959H103.352L102.247 12.388C102.247 11.6941 102.148 11.0994 101.95 10.6038C101.752 10.1082 101.454 9.73291 101.058 9.47802C100.675 9.20898 100.194 9.07445 99.6133 9.07445C99.0186 9.07445 98.5159 9.20898 98.1052 9.47802C97.6946 9.74707 97.383 10.1436 97.1706 10.6675C96.9582 11.1773 96.852 11.8074 96.852 12.5579C96.852 13.2518 96.9511 13.8607 97.1494 14.3846C97.3476 14.8944 97.6592 15.2909 98.084 15.5741C98.5088 15.8573 99.061 15.9989 99.7407 15.9989C100.364 15.9989 100.874 15.8785 101.27 15.6378C101.667 15.3971 101.936 15.0997 102.077 14.7457H105.2C105.03 15.5245 104.697 16.2184 104.201 16.8273C103.706 17.4362 103.083 17.9106 102.332 18.2504C101.582 18.5903 100.718 18.7602 99.7407 18.7602ZM113.76 18.739C112.811 18.739 111.976 18.5407 111.254 18.1442C110.532 17.7336 109.965 17.1459 109.554 16.3812C109.144 15.6166 108.924 14.682 108.896 13.5775H109.3V18.3566H106.602V2.85093H110V10.7312L109.193 11.7508C109.236 10.5755 109.455 9.59131 109.852 8.79832C110.262 7.99118 110.822 7.38936 111.53 6.99286C112.238 6.58221 113.045 6.37688 113.951 6.37688C114.744 6.37688 115.459 6.52557 116.097 6.82294C116.748 7.10615 117.3 7.5168 117.753 8.0549C118.206 8.57883 118.553 9.20189 118.794 9.92408C119.049 10.6463 119.176 11.4322 119.176 12.2818V12.7491C119.176 13.5987 119.049 14.3846 118.794 15.1068C118.553 15.829 118.192 16.4662 117.711 17.0185C117.244 17.5566 116.677 17.9814 116.012 18.2929C115.346 18.5903 114.596 18.739 113.76 18.739ZM112.868 15.8927C113.449 15.8927 113.951 15.7511 114.376 15.4679C114.815 15.1847 115.155 14.7882 115.396 14.2784C115.636 13.7545 115.757 13.1668 115.757 12.5154C115.757 11.8499 115.636 11.2693 115.396 10.7737C115.155 10.2781 114.815 9.89576 114.376 9.62671C113.951 9.3435 113.449 9.20189 112.868 9.20189C112.358 9.20189 111.877 9.32226 111.424 9.56299C110.97 9.80371 110.602 10.1506 110.319 10.6038C110.05 11.0428 109.916 11.5809 109.916 12.2181V13.004C109.916 13.6129 110.057 14.1368 110.34 14.5758C110.638 15.0006 111.013 15.3263 111.466 15.5529C111.919 15.7794 112.387 15.8927 112.868 15.8927ZM46.4729 38.3566V22.8509H52.1867L58.0279 35.5316H58.7501L58.3252 35.914V22.8509H61.5963V38.3566H55.8401L49.9989 25.6759H49.2767L49.7015 25.2936V38.3566H46.4729ZM69.4973 38.7602C68.4778 38.7602 67.5715 38.6044 66.7785 38.2929C65.9855 37.9672 65.3129 37.5282 64.7607 36.976C64.2226 36.4237 63.8119 35.7936 63.5287 35.0856C63.2455 34.3634 63.1039 33.6058 63.1039 32.8128V32.3243C63.1039 31.5171 63.2455 30.7525 63.5287 30.0303C63.8261 29.2939 64.2509 28.6496 64.8031 28.0974C65.3696 27.5451 66.0493 27.1132 66.8423 26.8017C67.6352 26.476 68.5203 26.3132 69.4973 26.3132C70.5027 26.3132 71.3948 26.476 72.1737 26.8017C72.9666 27.1132 73.6393 27.5451 74.1915 28.0974C74.7438 28.6496 75.1686 29.2939 75.466 30.0303C75.7633 30.7525 75.912 31.5171 75.912 32.3243V32.8128C75.912 33.6058 75.7704 34.3634 75.4872 35.0856C75.204 35.7936 74.7863 36.4237 74.234 36.976C73.6959 37.5282 73.0304 37.9672 72.2374 38.2929C71.4444 38.6044 70.531 38.7602 69.4973 38.7602ZM69.4973 35.8927C70.1629 35.8927 70.7151 35.7511 71.1541 35.4679C71.5931 35.1847 71.9259 34.7882 72.1524 34.2784C72.3931 33.7686 72.5135 33.2022 72.5135 32.5792C72.5135 31.9136 72.3931 31.333 72.1524 30.8374C71.9117 30.3277 71.5648 29.9241 71.1116 29.6267C70.6727 29.3293 70.1346 29.1807 69.4973 29.1807C68.8743 29.1807 68.3362 29.3293 67.883 29.6267C67.4299 29.9241 67.083 30.3277 66.8423 30.8374C66.6157 31.333 66.5024 31.9136 66.5024 32.5792C66.5024 33.2022 66.6157 33.7686 66.8423 34.2784C67.0688 34.7882 67.4087 35.1847 67.8618 35.4679C68.3149 35.7511 68.8601 35.8927 69.4973 35.8927ZM82.5107 38.5053C81.3354 38.5053 80.3867 38.3637 79.6645 38.0805C78.9423 37.7831 78.4113 37.2946 78.0714 36.6149C77.7457 35.921 77.5829 34.9864 77.5829 33.8111V23.5731H80.7478V33.9386C80.7478 34.4908 80.8894 34.9156 81.1726 35.213C81.4699 35.4962 81.8877 35.6378 82.4258 35.6378H84.1463V38.5053H82.5107ZM75.8199 29.2019V26.7167H84.1463V29.2019H75.8199ZM90.6595 38.7602C89.6683 38.7602 88.7903 38.5903 88.0257 38.2504C87.2752 37.9106 86.645 37.4574 86.1353 36.891C85.6396 36.3104 85.2573 35.6661 84.9883 34.9581C84.7334 34.2359 84.6059 33.4996 84.6059 32.7491V32.3243C84.6059 31.5454 84.7334 30.802 84.9883 30.094C85.2573 29.3718 85.6396 28.7275 86.1353 28.1611C86.6309 27.5947 87.2469 27.1486 87.9832 26.8229C88.7337 26.4831 89.5833 26.3132 90.5321 26.3132C91.7782 26.3132 92.8261 26.5964 93.6757 27.1628C94.5395 27.715 95.198 28.4443 95.6511 29.3506C96.1042 30.2427 96.3308 31.2198 96.3308 32.2818V33.4288H86.0291V31.4959H94.2704L93.1659 32.388C93.1659 31.6941 93.0668 31.0994 92.8686 30.6038C92.6703 30.1082 92.3729 29.7329 91.9764 29.478C91.5941 29.209 91.1127 29.0745 90.5321 29.0745C89.9373 29.0745 89.4346 29.209 89.024 29.478C88.6133 29.7471 88.3018 30.1436 88.0894 30.6675C87.877 31.1773 87.7708 31.8074 87.7708 32.5579C87.7708 33.2518 87.8699 33.8607 88.0682 34.3846C88.2664 34.8944 88.5779 35.2909 89.0028 35.5741C89.4276 35.8573 89.9798 35.9989 90.6595 35.9989C91.2826 35.9989 91.7924 35.8785 92.1889 35.6378C92.5853 35.3971 92.8544 35.0997 92.996 34.7457H96.1184C95.9485 35.5245 95.6157 36.2184 95.1201 36.8273C94.6245 37.4362 94.0014 37.9106 93.2509 38.2504C92.5004 38.5903 91.6366 38.7602 90.6595 38.7602ZM101.939 38.7177C100.282 38.7177 98.9864 38.3779 98.0518 37.6982C97.1172 37.0185 96.6216 36.0626 96.5649 34.8307H99.5811C99.6378 35.1988 99.8572 35.5316 100.24 35.829C100.636 36.1122 101.224 36.2538 102.003 36.2538C102.597 36.2538 103.086 36.1547 103.468 35.9564C103.865 35.744 104.063 35.4467 104.063 35.0643C104.063 34.7245 103.914 34.4554 103.617 34.2572C103.319 34.0448 102.788 33.8961 102.024 33.8111L101.11 33.7262C99.7086 33.5846 98.6536 33.1951 97.9456 32.5579C97.2517 31.9207 96.9048 31.1065 96.9048 30.1152C96.9048 29.2939 97.1101 28.6072 97.5208 28.0549C97.9314 27.5026 98.4978 27.0849 99.22 26.8017C99.9564 26.5185 100.792 26.3769 101.726 26.3769C103.227 26.3769 104.438 26.7097 105.359 27.3752C106.279 28.0266 106.76 28.9753 106.803 30.2214H103.787C103.73 29.8391 103.532 29.5205 103.192 29.2656C102.852 28.9966 102.349 28.862 101.684 28.862C101.16 28.862 100.742 28.9612 100.431 29.1594C100.119 29.3577 99.9634 29.6267 99.9634 29.9666C99.9634 30.2922 100.098 30.5401 100.367 30.71C100.636 30.8799 101.075 31.0003 101.684 31.0711L102.597 31.156C104.027 31.3118 105.139 31.7083 105.932 32.3455C106.725 32.9827 107.122 33.8394 107.122 34.9156C107.122 35.6945 106.909 36.3742 106.484 36.9547C106.06 37.5212 105.458 37.9601 104.679 38.2717C103.9 38.569 102.987 38.7177 101.939 38.7177Z" fill="#0A2A35"/>
<path d="M30.2509 39.7796H33.6524C35.5744 39.7796 37.1326 38.1934 37.1326 36.2369V15.2634L31.4107 37.5789C31.1956 38.4175 30.791 39.1653 30.2509 39.7796Z" fill="#0A2A35"/>
<path d="M29.6118 36.9993C29.2056 38.5525 27.8001 39.6362 26.1919 39.6362H3.53635C1.22187 39.6362 -0.46801 37.4527 0.116516 35.2174L7.17148 8.23832H37.1327L29.6118 36.9993Z" fill="#3DA885"/>
<path d="M7.16846 4.46663C7.16846 2.51148 8.75342 0.926514 10.7086 0.926514H33.5925C35.5477 0.926514 37.1326 2.51148 37.1326 4.46663V6.37454H7.16846V4.46663Z" fill="#6256CA"/>
</svg>
